<svg width="74" height="69" viewBox="0 0 74 69" fill="none" xmlns="http://www.w3.org/2000/svg">
<path d="M20.608 65.536C20.352 65.536 20.224 65.3227 20.224 64.896C20.224 64.4693 20.352 63.7013 20.608 62.592C20.9493 61.4827 21.2907 60.3733 21.632 59.264C22.0587 58.0693 22.3573 57.216 22.528 56.704C23.9787 52.1813 25.5573 47.3173 27.264 42.112C28.9707 36.8213 30.4213 31.5307 31.616 26.24C32.896 20.9493 33.536 16 33.536 11.392C33.536 9.77067 33.3653 8.23467 33.024 6.784C32.768 5.248 32.1707 3.968 31.232 2.944C30.3787 1.92 28.9707 1.408 27.008 1.408C23.8507 1.408 20.9067 2.38933 18.176 4.352C15.4453 6.22933 13.056 8.576 11.008 11.392C9.04533 14.1227 7.46667 16.8107 6.272 19.456C5.41867 21.3333 4.56533 23.296 3.712 25.344C2.944 27.392 2.56 29.5253 2.56 31.744C2.56 33.4507 2.944 35.2853 3.712 37.248C4.48 39.1253 5.67467 40.4907 7.296 41.344C7.63733 41.344 7.808 41.472 7.808 41.728H7.936V41.984C6.144 41.8133 4.65067 41.088 3.456 39.808C2.26133 38.528 1.36533 36.992 0.768 35.2C0.256 33.408 0 31.744 0 30.208C0 27.648 0.469333 24.96 1.408 22.144C2.432 19.2427 3.712 16.512 5.248 13.952C6.86933 11.3067 8.53333 9.088 10.24 7.296C10.9227 6.528 11.6907 5.888 12.544 5.376C13.4827 4.77867 14.3787 4.18133 15.232 3.584C16.0853 2.98667 16.9813 2.432 17.92 1.92C18.8587 1.408 19.8827 1.024 20.992 0.767998C21.248 0.682666 21.5467 0.639999 21.888 0.639999C22.2293 0.639999 22.528 0.597332 22.784 0.511997C23.04 0.426665 23.296 0.341331 23.552 0.255997C23.808 0.170664 24.064 0.0853322 24.32 0C26.0267 0.341331 27.648 0.682664 29.184 1.024C30.8053 1.28 32.256 2.09066 33.536 3.456C34.9013 4.82133 35.7973 6.44267 36.224 8.32C36.736 10.1973 36.992 12.0747 36.992 13.952C36.992 18.3893 36.2667 22.784 34.816 27.136C33.4507 31.4027 32.0427 35.6267 30.592 39.808C30.2507 40.7467 29.952 41.7707 29.696 42.88C29.5253 43.904 29.2267 44.8853 28.8 45.824C28.032 47.616 27.3493 49.3227 26.752 50.944C26.24 52.5653 25.6427 54.3573 24.96 56.32C24.8747 56.6613 24.6613 57.0027 24.32 57.344C24.064 57.6 23.8507 57.8987 23.68 58.24C23.2533 59.008 22.784 59.9467 22.272 61.056C21.8453 62.1653 21.504 63.1893 21.248 64.128C21.1627 64.384 21.12 64.6827 21.12 65.024C21.2053 65.3653 21.0347 65.536 20.608 65.536ZM24.576 68.224C24.064 68.224 23.552 68.096 23.04 67.84C22.6133 67.584 22.4 67.1573 22.4 66.56C22.4 66.1333 22.5707 65.4507 22.912 64.512C23.2533 63.6587 23.4667 63.0613 23.552 62.72C24.2347 61.0133 25.0027 59.4347 25.856 57.984C26.7947 56.448 27.6907 54.912 28.544 53.376C28.9707 52.7787 29.3547 52.224 29.696 51.712C30.1227 51.1147 30.464 50.5173 30.72 49.92C30.8907 49.4933 31.0613 49.0667 31.232 48.64C31.4027 48.2133 31.616 47.8293 31.872 47.488C32.5547 46.2933 33.28 45.184 34.048 44.16C34.816 43.0507 35.5413 41.9413 36.224 40.832C36.6507 40.1493 37.4187 38.9547 38.528 37.248C39.6373 35.5413 40.7467 33.92 41.856 32.384C43.0507 30.848 43.8613 29.952 44.288 29.696C44.4587 29.696 44.544 29.6107 44.544 29.44H44.416C45.0987 27.9893 46.0373 26.6667 47.232 25.472C48.4267 24.2773 49.5787 23.1253 50.688 22.016C53.4187 19.2853 55.8933 16.9813 58.112 15.104C60.3307 13.2267 63.3173 11.6907 67.072 10.496C68.864 10.6667 70.4427 11.2213 71.808 12.16C73.1733 13.0987 73.856 14.592 73.856 16.64C73.856 17.664 73.728 18.56 73.472 19.328C73.1307 20.1813 72.7467 21.0773 72.32 22.016C71.8933 22.9547 71.4667 23.8507 71.04 24.704C70.6987 25.216 70.3573 25.472 70.016 25.472V25.216L70.144 25.088C70.5707 23.7227 70.8693 22.4 71.04 21.12C71.296 19.7547 71.424 18.3893 71.424 17.024C71.424 16.0853 71.2533 15.0613 70.912 13.952C70.656 12.8427 69.9307 12.288 68.736 12.288C68.3093 12.288 67.584 12.4587 66.56 12.8C65.536 13.1413 65.024 13.568 65.024 14.08C64 14.08 62.6773 14.6773 61.056 15.872C59.52 17.0667 57.856 18.5173 56.064 20.224C54.3573 21.9307 52.8213 23.5947 51.456 25.216C50.0907 26.8373 49.152 28.0747 48.64 28.928C48.5547 29.0133 48.4693 29.1413 48.384 29.312C48.384 29.3973 48.2987 29.44 48.128 29.44C47.9573 29.6107 47.744 29.952 47.488 30.464C47.232 30.8907 47.0613 31.1893 46.976 31.36C46.72 31.5307 46.3787 31.872 45.952 32.384C45.5253 32.896 45.312 33.3227 45.312 33.664C45.312 33.8347 45.44 33.92 45.696 33.92L45.44 34.048C44.7573 34.56 44.16 35.072 43.648 35.584C43.2213 36.096 42.9227 36.8213 42.752 37.76C42.6667 37.8453 42.624 37.9733 42.624 38.144C42.7093 38.2293 42.6667 38.3147 42.496 38.4V38.528C42.0693 38.6133 41.344 39.296 40.32 40.576C39.296 41.856 38.1867 43.3493 36.992 45.056C35.8827 46.7627 34.8587 48.3413 33.92 49.792C33.0667 51.2427 32.512 52.224 32.256 52.736C32 53.3333 31.744 53.9307 31.488 54.528C31.3173 55.04 31.0613 55.5947 30.72 56.192C30.3787 56.8747 29.824 57.6853 29.056 58.624C28.7147 59.2213 28.416 60.288 28.16 61.824C27.9893 63.36 27.648 64.8107 27.136 66.176C26.624 67.5413 25.7707 68.224 24.576 68.224Z" fill="white"/>
</svg>
