<svg width="290" height="146" viewBox="0 0 290 146" fill="none" xmlns="http://www.w3.org/2000/svg">
<rect width="290" height="146" fill="#1E1E1E"/>
<rect width="290" height="146" fill="black"/>
<path d="M25.248 107.816C24.992 107.816 24.864 107.603 24.864 107.176C24.864 106.749 24.992 105.981 25.248 104.872C25.5893 103.763 25.9307 102.653 26.272 101.544C26.6987 100.349 26.9973 99.496 27.168 98.984C28.6187 94.4613 30.1973 89.5973 31.904 84.392C33.6107 79.1013 35.0613 73.8107 36.256 68.52C37.536 63.2293 38.176 58.28 38.176 53.672C38.176 52.0507 38.0053 50.5147 37.664 49.064C37.408 47.528 36.8107 46.248 35.872 45.224C35.0187 44.2 33.6107 43.688 31.648 43.688C28.4907 43.688 25.5467 44.6693 22.816 46.632C20.0853 48.5093 17.696 50.856 15.648 53.672C13.6853 56.4027 12.1067 59.0907 10.912 61.736C10.0587 63.6133 9.20533 65.576 8.352 67.624C7.584 69.672 7.2 71.8053 7.2 74.024C7.2 75.7307 7.584 77.5653 8.352 79.528C9.12 81.4053 10.3147 82.7707 11.936 83.624C12.2773 83.624 12.448 83.752 12.448 84.008H12.576V84.264C10.784 84.0933 9.29067 83.368 8.096 82.088C6.90133 80.808 6.00533 79.272 5.408 77.48C4.896 75.688 4.64 74.024 4.64 72.488C4.64 69.928 5.10933 67.24 6.048 64.424C7.072 61.5227 8.352 58.792 9.888 56.232C11.5093 53.5867 13.1733 51.368 14.88 49.576C15.5627 48.808 16.3307 48.168 17.184 47.656C18.1227 47.0587 19.0187 46.4613 19.872 45.864C20.7253 45.2667 21.6213 44.712 22.56 44.2C23.4987 43.688 24.5227 43.304 25.632 43.048C25.888 42.9627 26.1867 42.92 26.528 42.92C26.8693 42.92 27.168 42.8773 27.424 42.792C27.68 42.7067 27.936 42.6213 28.192 42.536C28.448 42.4507 28.704 42.3653 28.96 42.28C30.6667 42.6213 32.288 42.9627 33.824 43.304C35.4453 43.56 36.896 44.3707 38.176 45.736C39.5413 47.1013 40.4373 48.7227 40.864 50.6C41.376 52.4773 41.632 54.3547 41.632 56.232C41.632 60.6693 40.9067 65.064 39.456 69.416C38.0907 73.6827 36.6827 77.9067 35.232 82.088C34.8907 83.0267 34.592 84.0507 34.336 85.16C34.1653 86.184 33.8667 87.1653 33.44 88.104C32.672 89.896 31.9893 91.6027 31.392 93.224C30.88 94.8453 30.2827 96.6373 29.6 98.6C29.5147 98.9413 29.3013 99.2827 28.96 99.624C28.704 99.88 28.4907 100.179 28.32 100.52C27.8933 101.288 27.424 102.227 26.912 103.336C26.4853 104.445 26.144 105.469 25.888 106.408C25.8027 106.664 25.76 106.963 25.76 107.304C25.8453 107.645 25.6747 107.816 25.248 107.816ZM29.216 110.504C28.704 110.504 28.192 110.376 27.68 110.12C27.2533 109.864 27.04 109.437 27.04 108.84C27.04 108.413 27.2107 107.731 27.552 106.792C27.8933 105.939 28.1067 105.341 28.192 105C28.8747 103.293 29.6427 101.715 30.496 100.264C31.4347 98.728 32.3307 97.192 33.184 95.656C33.6107 95.0587 33.9947 94.504 34.336 93.992C34.7627 93.3947 35.104 92.7973 35.36 92.2C35.5307 91.7733 35.7013 91.3467 35.872 90.92C36.0427 90.4933 36.256 90.1093 36.512 89.768C37.1947 88.5733 37.92 87.464 38.688 86.44C39.456 85.3307 40.1813 84.2213 40.864 83.112C41.2907 82.4293 42.0587 81.2347 43.168 79.528C44.2773 77.8213 45.3867 76.2 46.496 74.664C47.6907 73.128 48.5013 72.232 48.928 71.976C49.0987 71.976 49.184 71.8907 49.184 71.72H49.056C49.7387 70.2693 50.6773 68.9467 51.872 67.752C53.0667 66.5573 54.2187 65.4053 55.328 64.296C58.0587 61.5653 60.5333 59.2613 62.752 57.384C64.9707 55.5067 67.9573 53.9707 71.712 52.776C73.504 52.9467 75.0827 53.5013 76.448 54.44C77.8133 55.3787 78.496 56.872 78.496 58.92C78.496 59.944 78.368 60.84 78.112 61.608C77.7707 62.4613 77.3867 63.3573 76.96 64.296C76.5333 65.2347 76.1067 66.1307 75.68 66.984C75.3387 67.496 74.9973 67.752 74.656 67.752V67.496L74.784 67.368C75.2107 66.0027 75.5093 64.68 75.68 63.4C75.936 62.0347 76.064 60.6693 76.064 59.304C76.064 58.3653 75.8933 57.3413 75.552 56.232C75.296 55.1227 74.5707 54.568 73.376 54.568C72.9493 54.568 72.224 54.7387 71.2 55.08C70.176 55.4213 69.664 55.848 69.664 56.36C68.64 56.36 67.3173 56.9573 65.696 58.152C64.16 59.3467 62.496 60.7973 60.704 62.504C58.9973 64.2107 57.4613 65.8747 56.096 67.496C54.7307 69.1173 53.792 70.3547 53.28 71.208C53.1947 71.2933 53.1093 71.4213 53.024 71.592C53.024 71.6773 52.9387 71.72 52.768 71.72C52.5973 71.8907 52.384 72.232 52.128 72.744C51.872 73.1707 51.7013 73.4693 51.616 73.64C51.36 73.8107 51.0187 74.152 50.592 74.664C50.1653 75.176 49.952 75.6027 49.952 75.944C49.952 76.1147 50.08 76.2 50.336 76.2L50.08 76.328C49.3973 76.84 48.8 77.352 48.288 77.864C47.8613 78.376 47.5627 79.1013 47.392 80.04C47.3067 80.1253 47.264 80.2533 47.264 80.424C47.3493 80.5093 47.3067 80.5947 47.136 80.68V80.808C46.7093 80.8933 45.984 81.576 44.96 82.856C43.936 84.136 42.8267 85.6293 41.632 87.336C40.5227 89.0427 39.4987 90.6213 38.56 92.072C37.7067 93.5227 37.152 94.504 36.896 95.016C36.64 95.6133 36.384 96.2107 36.128 96.808C35.9573 97.32 35.7013 97.8747 35.36 98.472C35.0187 99.1547 34.464 99.9653 33.696 100.904C33.3547 101.501 33.056 102.568 32.8 104.104C32.6293 105.64 32.288 107.091 31.776 108.456C31.264 109.821 30.4107 110.504 29.216 110.504ZM63.401 105.64C61.2677 105.64 59.1343 104.957 57.001 103.592C54.8677 102.227 53.801 100.349 53.801 97.96C53.801 97.5333 53.801 97.1067 53.801 96.68C53.8863 96.2533 53.929 95.8693 53.929 95.528C53.929 95.016 53.545 94.5893 52.777 94.248C52.009 93.8213 51.625 93.352 51.625 92.84C51.7103 92.7547 51.8383 92.712 52.009 92.712C52.3503 92.712 52.6917 92.7973 53.033 92.968C53.3743 93.0533 53.7157 93.096 54.057 93.096C54.313 93.096 54.6117 93.0107 54.953 92.84C55.1237 92.6693 55.465 91.9013 55.977 90.536C56.5743 89.1707 57.4277 87.5067 58.537 85.544C59.6463 83.5813 61.0543 81.704 62.761 79.912C64.4677 78.0347 66.5157 76.584 68.905 75.56C69.417 75.3893 69.929 75.2187 70.441 75.048C71.0383 74.792 71.593 74.664 72.105 74.664C73.0437 74.664 74.025 75.048 75.049 75.816C76.1583 76.4987 76.713 77.352 76.713 78.376C76.713 78.9733 76.585 79.528 76.329 80.04C76.073 80.4667 75.817 80.936 75.561 81.448L74.921 81.832C74.665 82.2587 74.1957 82.856 73.513 83.624C72.9157 84.3067 72.617 84.8187 72.617 85.16C72.617 85.16 72.5743 85.16 72.489 85.16C72.489 85.16 72.489 85.2027 72.489 85.288L71.977 85.416C71.465 85.7573 71.0383 86.184 70.697 86.696C70.3557 87.208 69.9717 87.592 69.545 87.848C67.9237 88.9573 66.3023 90.024 64.681 91.048C63.145 92.072 61.481 93.0107 59.689 93.864C59.3477 94.0347 58.9637 94.1627 58.537 94.248C58.1103 94.3333 57.769 94.5467 57.513 94.888C57.1717 95.4 56.9157 95.9973 56.745 96.68C56.6597 97.3627 56.617 98.0453 56.617 98.728C56.617 99.752 56.873 100.904 57.385 102.184C57.897 103.379 58.793 103.976 60.073 103.976C60.2437 103.976 60.3717 103.976 60.457 103.976C60.6277 103.891 60.7557 103.848 60.841 103.848C61.353 103.848 61.8223 103.805 62.249 103.72C62.761 103.635 63.273 103.549 63.785 103.464L64.553 103.08H64.681C65.1077 103.08 65.9183 102.781 67.113 102.184C68.393 101.501 69.6303 100.819 70.825 100.136C72.0197 99.368 72.745 98.856 73.001 98.6C73.1717 98.5147 73.2997 98.3867 73.385 98.216C73.5557 98.0453 73.6837 97.9173 73.769 97.832C75.2197 96.7227 76.713 95.656 78.249 94.632C79.785 93.608 81.2357 92.4133 82.601 91.048V91.176H82.857C82.7717 91.6027 82.4303 92.0293 81.833 92.456C81.321 92.8827 80.937 93.3093 80.681 93.736C79.7423 95.4427 78.249 97.064 76.201 98.6C74.153 100.136 72.2757 101.459 70.569 102.568C69.9717 102.995 69.3743 103.464 68.777 103.976C68.265 104.403 67.6677 104.744 66.985 105C65.705 105.427 64.5103 105.64 63.401 105.64ZM58.409 91.56C59.0917 91.56 59.7317 91.304 60.329 90.792C61.0117 90.1947 61.5237 89.8533 61.865 89.768L61.993 89.896V89.768C63.6143 89 65.1503 87.9333 66.601 86.568C68.137 85.2027 69.545 83.88 70.825 82.6H71.081C71.081 82.088 71.465 81.5333 72.233 80.936C73.001 80.2533 73.385 79.6987 73.385 79.272C73.5557 79.1013 73.7263 78.8453 73.897 78.504C74.0677 78.0773 74.153 77.7787 74.153 77.608C73.897 77.4373 73.513 77.352 73.001 77.352C72.5743 77.5227 72.0197 77.8213 71.337 78.248C70.6543 78.6747 70.057 78.888 69.545 78.888C69.545 78.9733 69.1183 79.3147 68.265 79.912C67.497 80.5093 66.6863 81.1493 65.833 81.832C64.9797 82.5147 64.425 82.984 64.169 83.24C63.7423 83.6667 63.0597 84.4347 62.121 85.544C61.1823 86.6533 60.329 87.7627 59.561 88.872C58.793 89.9813 58.409 90.8347 58.409 91.432V91.56ZM92.526 105.64C90.3927 105.64 88.2593 104.957 86.126 103.592C83.9927 102.227 82.926 100.349 82.926 97.96C82.926 97.5333 82.926 97.1067 82.926 96.68C83.0113 96.2533 83.054 95.8693 83.054 95.528C83.054 95.016 82.67 94.5893 81.902 94.248C81.134 93.8213 80.75 93.352 80.75 92.84C80.8353 92.7547 80.9633 92.712 81.134 92.712C81.4753 92.712 81.8167 92.7973 82.158 92.968C82.4993 93.0533 82.8407 93.096 83.182 93.096C83.438 93.096 83.7367 93.0107 84.078 92.84C84.2487 92.6693 84.59 91.9013 85.102 90.536C85.6993 89.1707 86.5527 87.5067 87.662 85.544C88.7713 83.5813 90.1793 81.704 91.886 79.912C93.5927 78.0347 95.6407 76.584 98.03 75.56C98.542 75.3893 99.054 75.2187 99.566 75.048C100.163 74.792 100.718 74.664 101.23 74.664C102.169 74.664 103.15 75.048 104.174 75.816C105.283 76.4987 105.838 77.352 105.838 78.376C105.838 78.9733 105.71 79.528 105.454 80.04C105.198 80.4667 104.942 80.936 104.686 81.448L104.046 81.832C103.79 82.2587 103.321 82.856 102.638 83.624C102.041 84.3067 101.742 84.8187 101.742 85.16C101.742 85.16 101.699 85.16 101.614 85.16C101.614 85.16 101.614 85.2027 101.614 85.288L101.102 85.416C100.59 85.7573 100.163 86.184 99.822 86.696C99.4807 87.208 99.0967 87.592 98.67 87.848C97.0487 88.9573 95.4273 90.024 93.806 91.048C92.27 92.072 90.606 93.0107 88.814 93.864C88.4727 94.0347 88.0887 94.1627 87.662 94.248C87.2353 94.3333 86.894 94.5467 86.638 94.888C86.2967 95.4 86.0407 95.9973 85.87 96.68C85.7847 97.3627 85.742 98.0453 85.742 98.728C85.742 99.752 85.998 100.904 86.51 102.184C87.022 103.379 87.918 103.976 89.198 103.976C89.3687 103.976 89.4967 103.976 89.582 103.976C89.7527 103.891 89.8807 103.848 89.966 103.848C90.478 103.848 90.9473 103.805 91.374 103.72C91.886 103.635 92.398 103.549 92.91 103.464L93.678 103.08H93.806C94.2327 103.08 95.0433 102.781 96.238 102.184C97.518 101.501 98.7553 100.819 99.95 100.136C101.145 99.368 101.87 98.856 102.126 98.6C102.297 98.5147 102.425 98.3867 102.51 98.216C102.681 98.0453 102.809 97.9173 102.894 97.832C104.345 96.7227 105.838 95.656 107.374 94.632C108.91 93.608 110.361 92.4133 111.726 91.048V91.176H111.982C111.897 91.6027 111.555 92.0293 110.958 92.456C110.446 92.8827 110.062 93.3093 109.806 93.736C108.867 95.4427 107.374 97.064 105.326 98.6C103.278 100.136 101.401 101.459 99.694 102.568C99.0967 102.995 98.4993 103.464 97.902 103.976C97.39 104.403 96.7927 104.744 96.11 105C94.83 105.427 93.6353 105.64 92.526 105.64ZM87.534 91.56C88.2167 91.56 88.8567 91.304 89.454 90.792C90.1367 90.1947 90.6487 89.8533 90.99 89.768L91.118 89.896V89.768C92.7393 89 94.2753 87.9333 95.726 86.568C97.262 85.2027 98.67 83.88 99.95 82.6H100.206C100.206 82.088 100.59 81.5333 101.358 80.936C102.126 80.2533 102.51 79.6987 102.51 79.272C102.681 79.1013 102.851 78.8453 103.022 78.504C103.193 78.0773 103.278 77.7787 103.278 77.608C103.022 77.4373 102.638 77.352 102.126 77.352C101.699 77.5227 101.145 77.8213 100.462 78.248C99.7793 78.6747 99.182 78.888 98.67 78.888C98.67 78.9733 98.2433 79.3147 97.39 79.912C96.622 80.5093 95.8113 81.1493 94.958 81.832C94.1047 82.5147 93.55 82.984 93.294 83.24C92.8673 83.6667 92.1847 84.4347 91.246 85.544C90.3073 86.6533 89.454 87.7627 88.686 88.872C87.918 89.9813 87.534 90.8347 87.534 91.432V91.56ZM113.075 107.432C112.563 107.432 112.051 107.261 111.539 106.92C111.027 106.664 110.686 106.237 110.515 105.64C110.515 105.555 110.515 105.341 110.515 105C110.6 104.744 110.686 104.616 110.771 104.616L116.915 90.152C117.512 88.7013 118.152 86.9947 118.835 85.032C119.518 82.984 120.03 80.9787 120.371 79.016C120.798 76.968 120.926 75.2187 120.755 73.768C120.243 73.768 119.688 73.8533 119.091 74.024C118.494 74.1947 117.939 74.28 117.427 74.28C117.256 74.28 117.171 74.152 117.171 73.896C117.171 73.64 117.256 73.384 117.427 73.128C117.683 72.7867 118.11 72.6587 118.707 72.744C118.878 72.8293 119.262 72.872 119.859 72.872C120.883 72.872 122.035 72.9147 123.315 73C124.595 73 125.278 73.5547 125.363 74.664C125.363 75.0907 125.064 76.072 124.467 77.608C123.955 79.144 123.272 80.8933 122.419 82.856C121.651 84.8187 120.926 86.696 120.243 88.488C119.56 90.1947 119.091 91.4747 118.835 92.328C118.408 93.1813 118.195 93.7787 118.195 94.12H118.579C119.262 93.0107 120.03 92.0293 120.883 91.176C121.822 90.2373 122.632 89.2133 123.315 88.104C123.827 87.7627 124.595 86.952 125.619 85.672C126.643 84.3067 127.71 82.9413 128.819 81.576C130.014 80.1253 131.123 79.1013 132.147 78.504C132.318 78.4187 132.702 78.2053 133.299 77.864C133.896 77.4373 134.238 77.1813 134.323 77.096C134.579 77.096 134.835 77.096 135.091 77.096C135.432 77.0107 135.731 76.968 135.987 76.968C136.243 76.968 136.456 77.0107 136.627 77.096C136.883 77.096 137.139 77.096 137.395 77.096C137.651 77.096 138.206 77.3093 139.059 77.736C139.912 78.0773 140.723 78.504 141.491 79.016C142.259 79.4427 142.643 79.784 142.643 80.04C142.643 80.808 142.344 81.4053 141.747 81.832C141.15 82.1733 140.638 82.5573 140.211 82.984C139.614 83.752 138.931 84.6053 138.163 85.544C137.48 86.3973 137.054 87.336 136.883 88.36L136.755 89L136.627 89.128C136.627 89.128 136.584 89.0853 136.499 89C136.499 88.9147 136.456 88.872 136.371 88.872L136.243 89C136.243 87.2933 136.67 85.672 137.523 84.136C138.376 82.5147 138.803 80.8933 138.803 79.272C138.803 78.8453 138.632 78.632 138.291 78.632C137.694 78.632 136.883 79.016 135.859 79.784C134.835 80.4667 133.896 81.192 133.043 81.96C132.19 82.6427 131.678 82.984 131.507 82.984C131.336 83.3253 130.824 83.88 129.971 84.648C129.203 85.416 128.648 85.928 128.307 86.184C127.71 86.696 127.155 87.2933 126.643 87.976C126.216 88.6587 125.747 89.3413 125.235 90.024C125.15 90.1093 124.979 90.2373 124.723 90.408C124.467 90.5787 124.254 90.7493 124.083 90.92C123.742 91.5173 123.315 92.072 122.803 92.584C122.632 92.9253 122.462 93.2667 122.291 93.608C122.206 93.9493 121.992 94.2907 121.651 94.632L121.011 94.76C120.67 95.4427 120.243 96.0827 119.731 96.68C119.219 97.192 118.75 97.7467 118.323 98.344C117.982 98.9413 117.683 99.5813 117.427 100.264C117.256 100.947 116.958 101.544 116.531 102.056C116.019 102.739 115.464 103.549 114.867 104.488C114.355 105.341 114.099 106.237 114.099 107.176H113.971C113.63 107.347 113.331 107.432 113.075 107.432ZM146.814 104.872C145.619 104.872 144.297 104.232 142.846 102.952C141.395 101.587 140.67 100.264 140.67 98.984H140.542C140.627 98.6427 140.713 97.832 140.798 96.552C140.883 95.272 141.097 94.5893 141.438 94.504V94.248C141.523 94.1627 141.737 93.8213 142.078 93.224C142.419 92.6267 142.761 91.9867 143.102 91.304C143.529 90.6213 143.785 90.1947 143.87 90.024C144.126 89.5973 144.809 88.7867 145.918 87.592C147.027 86.312 148.179 85.1173 149.374 84.008C150.569 82.8987 151.337 82.344 151.678 82.344C152.19 81.576 153.129 80.7227 154.494 79.784C155.945 78.8453 157.395 77.9493 158.846 77.096C160.382 76.2427 161.449 75.6453 162.046 75.304V75.176L162.174 75.304H162.302C162.643 74.9627 163.283 74.6213 164.222 74.28C165.246 73.8533 165.929 73.5973 166.27 73.512C166.867 73.256 167.465 73.0853 168.062 73C168.659 72.9147 169.257 72.8293 169.854 72.744C170.281 72.8293 170.707 72.872 171.134 72.872C171.646 72.872 172.115 72.9147 172.542 73C173.395 73.1707 174.334 73.64 175.358 74.408C176.382 75.0907 176.894 75.944 176.894 76.968C176.809 77.0533 176.723 77.1813 176.638 77.352C176.553 77.5227 176.553 77.6507 176.638 77.736L176.126 77.48C175.614 76.5413 174.846 75.9867 173.822 75.816C172.798 75.56 171.817 75.432 170.878 75.432C168.574 75.432 166.142 76.0293 163.582 77.224C161.022 78.3333 158.505 79.8267 156.03 81.704C153.555 83.5813 151.337 85.5867 149.374 87.72C147.497 89.8533 146.089 91.9013 145.15 93.864L144.766 95.4C144.595 96.2533 144.339 97.064 143.998 97.832C143.657 98.6 143.486 99.4533 143.486 100.392C143.486 101.075 143.571 101.587 143.742 101.928C143.913 102.184 144.211 102.611 144.638 103.208L144.894 103.08V103.208L145.15 102.952L145.662 103.08C146.259 102.739 146.899 102.483 147.582 102.312C148.265 102.056 148.819 101.715 149.246 101.288L149.502 101.032C150.014 100.861 150.483 100.563 150.91 100.136C151.337 99.7093 151.721 99.3253 152.062 98.984C153.342 97.7893 154.622 96.5947 155.902 95.4C157.182 94.2053 158.377 92.968 159.486 91.688C160.083 91.0053 160.851 90.152 161.79 89.128C162.729 88.104 163.539 87.3787 164.222 86.952L164.35 86.44C165.033 86.184 165.673 85.5867 166.27 84.648C166.953 83.7093 167.593 82.8133 168.19 81.96C168.873 81.0213 169.513 80.552 170.11 80.552L170.622 80.424C171.305 80.424 171.859 80.7227 172.286 81.32C172.713 81.832 172.926 82.3867 172.926 82.984C172.926 83.6667 172.713 84.4347 172.286 85.288C171.859 86.1413 171.561 86.9093 171.39 87.592C170.963 89.384 170.665 91.0053 170.494 92.456C170.323 93.8213 170.238 95.4 170.238 97.192C170.238 98.3013 170.409 99.24 170.75 100.008C171.177 100.776 171.774 101.587 172.542 102.44H173.182C174.377 101.757 175.23 101.032 175.742 100.264C176.254 99.496 176.894 98.6853 177.662 97.832C177.747 97.832 177.833 97.7893 177.918 97.704C178.003 97.6187 178.046 97.576 178.046 97.576C178.217 97.576 178.302 97.6613 178.302 97.832C178.302 98.1733 178.217 98.5147 178.046 98.856C177.961 99.112 177.875 99.4533 177.79 99.88C177.619 100.819 177.363 101.715 177.022 102.568C176.766 103.336 175.955 103.72 174.59 103.72C173.822 103.72 172.969 103.549 172.03 103.208C171.091 102.867 170.323 102.397 169.726 101.8C168.446 100.349 167.635 98.7707 167.294 97.064C167.038 95.272 166.91 93.4373 166.91 91.56V87.464H166.654C166.313 87.976 165.929 88.488 165.502 89C165.075 89.512 164.649 90.024 164.222 90.536C163.881 90.8773 163.454 91.2613 162.942 91.688C162.515 92.0293 162.131 92.456 161.79 92.968C161.619 92.968 161.278 93.2667 160.766 93.864C160.339 94.376 160.126 94.76 160.126 95.016C159.529 95.1013 158.846 95.6133 158.078 96.552C157.395 97.4907 156.926 97.96 156.67 97.96C156.585 98.216 156.286 98.6427 155.774 99.24C155.262 99.752 154.878 100.136 154.622 100.392C154.025 100.477 153.513 100.776 153.086 101.288C152.745 101.8 152.403 102.269 152.062 102.696C151.294 103.037 150.441 103.507 149.502 104.104C148.563 104.616 147.667 104.872 146.814 104.872ZM178.625 112.04C178.284 111.869 177.942 111.443 177.601 110.76C177.174 110.163 176.79 109.523 176.449 108.84C176.108 108.243 175.766 107.987 175.425 108.072C175.425 107.731 175.382 107.432 175.297 107.176C175.126 106.92 175.041 106.664 175.041 106.408C176.833 103.933 179.009 101.715 181.569 99.752C184.214 97.7893 186.86 96.1253 189.505 94.76H189.889C190.486 94.1627 191.169 93.6507 191.937 93.224C192.79 92.7973 193.43 92.2853 193.857 91.688V91.56C192.748 90.8773 191.553 90.28 190.273 89.768C188.993 89.256 187.884 88.5307 186.945 87.592C186.092 86.9093 185.281 86.056 184.513 85.032C183.83 84.008 183.489 82.8987 183.489 81.704C183.489 79.8267 184.385 78.12 186.177 76.584C187.969 74.9627 189.59 73.7253 191.041 72.872C191.468 72.36 192.278 71.7627 193.473 71.08C194.753 70.3973 196.033 69.7573 197.313 69.16C198.678 68.4773 199.66 68.008 200.257 67.752V67.88C200.854 67.4533 201.537 67.1547 202.305 66.984L203.841 66.344H204.097C204.78 66.1733 205.505 66.0027 206.273 65.832C207.041 65.576 207.766 65.448 208.449 65.448C209.217 65.448 210.113 65.8747 211.137 66.728C212.161 67.5813 212.673 68.4347 212.673 69.288C212.673 69.6293 212.417 70.2693 211.905 71.208C211.478 72.0613 210.966 72.872 210.369 73.64C209.857 74.408 209.43 74.8773 209.089 75.048C209.004 75.048 208.918 75.0907 208.833 75.176C208.833 75.176 208.79 75.176 208.705 75.176V74.92C209.132 74.408 209.516 73.64 209.857 72.616C210.284 71.5067 210.497 70.6107 210.497 69.928C210.497 68.648 209.814 68.008 208.449 68.008C207.425 68.008 206.444 68.1787 205.505 68.52C204.652 68.776 203.756 69.1173 202.817 69.544C199.66 70.6533 196.886 71.976 194.497 73.512C192.193 74.9627 190.06 77.1387 188.097 80.04C187.756 80.6373 187.372 81.2773 186.945 81.96C186.604 82.5573 186.433 83.1973 186.433 83.88C186.433 84.7333 186.732 85.4587 187.329 86.056C188.012 86.568 188.694 86.9947 189.377 87.336C189.633 87.5067 190.273 87.8907 191.297 88.488C192.321 89.0853 193.302 89.6827 194.241 90.28C195.265 90.792 195.82 91.048 195.905 91.048C196.332 91.048 196.758 90.8773 197.185 90.536C197.612 90.1947 197.996 89.9387 198.337 89.768C199.532 89.0853 201.196 88.232 203.329 87.208C205.462 86.0987 207.169 85.416 208.449 85.16L210.241 84.776C210.326 84.776 210.454 84.8613 210.625 85.032C210.54 85.1173 210.412 85.2453 210.241 85.416C210.07 85.5013 209.9 85.5867 209.729 85.672C209.217 86.184 208.364 86.6533 207.169 87.08C206.06 87.4213 205.292 87.7627 204.865 88.104C204.609 88.2747 204.396 88.5307 204.225 88.872C204.054 89.128 203.841 89.3413 203.585 89.512C202.817 90.024 201.836 90.7067 200.641 91.56C199.446 92.328 198.849 93.224 198.849 94.248C198.849 94.5893 198.892 94.9307 198.977 95.272C199.148 95.6133 199.233 95.9973 199.233 96.424C199.233 97.1067 199.02 98.088 198.593 99.368C198.166 100.563 197.654 101.373 197.057 101.8V102.312C196.289 102.568 195.692 103.123 195.265 103.976C194.924 104.744 194.241 105.085 193.217 105L192.577 105.768C191.98 105.768 191.468 105.981 191.041 106.408C190.614 106.92 190.188 107.389 189.761 107.816H189.633C189.036 107.816 188.396 108.072 187.713 108.584C187.116 109.181 186.348 109.693 185.409 110.12C184.556 110.632 183.446 110.76 182.081 110.504C181.74 110.589 181.441 110.717 181.185 110.888C180.929 111.059 180.63 111.144 180.289 111.144C180.033 111.144 179.905 111.059 179.905 110.888C179.905 110.803 180.033 110.632 180.289 110.376C180.63 110.205 181.526 109.779 182.977 109.096C184.428 108.413 185.452 107.901 186.049 107.56C186.049 107.475 186.22 107.304 186.561 107.048C186.988 106.792 187.244 106.621 187.329 106.536C188.438 105.768 189.676 104.787 191.041 103.592C192.406 102.312 193.601 100.947 194.625 99.496C195.649 97.96 196.161 96.5093 196.161 95.144C196.161 94.888 196.118 94.5467 196.033 94.12C195.948 93.608 195.734 93.352 195.393 93.352C195.052 93.352 194.71 93.5227 194.369 93.864C194.113 94.2053 193.9 94.4613 193.729 94.632C193.132 95.0587 192.492 95.4853 191.809 95.912C191.126 96.3387 190.444 96.808 189.761 97.32C188.908 97.9173 188.14 98.6 187.457 99.368C186.774 100.051 186.006 100.733 185.153 101.416C184.044 102.269 183.02 103.165 182.081 104.104C181.142 104.957 180.204 105.896 179.265 106.92C178.582 107.603 178.241 108.456 178.241 109.48C178.241 109.821 178.326 110.163 178.497 110.504C178.668 110.931 178.753 111.357 178.753 111.784L178.625 112.04ZM225.066 73.128C224.725 73.128 224.298 72.9147 223.786 72.488C223.274 72.0613 223.018 71.6773 223.018 71.336C223.018 71.1653 223.317 70.7813 223.914 70.184C224.511 69.5013 225.151 68.8613 225.834 68.264C226.602 67.5813 227.071 67.1547 227.242 66.984C227.925 67.1547 228.266 67.5387 228.266 68.136C228.266 68.4773 228.053 69.0747 227.626 69.928C227.285 70.696 226.858 71.4213 226.346 72.104C225.919 72.7867 225.493 73.128 225.066 73.128ZM211.498 106.28C211.242 106.28 210.986 106.195 210.73 106.024C210.559 105.853 210.346 105.725 210.09 105.64C209.493 105.128 209.066 104.701 208.81 104.36C208.554 104.019 208.426 103.421 208.426 102.568C208.426 99.8373 209.066 97.2347 210.346 94.76C211.626 92.2 212.821 89.768 213.93 87.464C214.101 87.2933 214.143 87.1227 214.058 86.952C213.973 86.696 213.93 86.4827 213.93 86.312C213.93 85.544 214.229 84.6907 214.826 83.752C215.509 82.728 216.277 81.7467 217.13 80.808C217.983 79.8693 218.666 79.1867 219.178 78.76C219.69 78.76 220.458 78.8453 221.482 79.016C222.506 79.1013 223.018 79.4853 223.018 80.168C223.018 80.2533 222.591 80.7653 221.738 81.704C220.885 82.6427 220.373 83.24 220.202 83.496C219.093 85.2027 217.77 87.2507 216.234 89.64C214.783 91.944 213.503 94.3333 212.394 96.808C211.285 99.2827 210.73 101.629 210.73 103.848C211.754 103.677 212.821 103.08 213.93 102.056C215.125 100.947 216.021 100.008 216.618 99.24H216.746V99.368C216.746 99.7093 216.575 100.051 216.234 100.392C215.893 100.733 215.637 101.032 215.466 101.288C215.125 101.885 214.57 102.867 213.802 104.232C213.119 105.597 212.351 106.28 211.498 106.28ZM225.233 107.816C224.124 107.816 223.398 107.304 223.057 106.28C222.716 105.341 222.588 104.403 222.673 103.464C222.929 101.672 223.313 99.8373 223.825 97.96C224.337 96.0827 224.849 94.248 225.361 92.456C225.788 91.2613 226.044 90.0667 226.129 88.872C226.3 87.592 226.513 86.3547 226.769 85.16C226.94 84.5627 227.068 84.008 227.153 83.496C227.238 82.8987 227.324 82.3013 227.409 81.704C227.494 81.3627 227.537 81.064 227.537 80.808C227.537 80.4667 227.537 80.2107 227.537 80.04C227.537 79.272 227.324 78.76 226.897 78.504C226.556 78.248 225.83 78.12 224.721 78.12C224.892 77.7787 225.19 77.6507 225.617 77.736C226.044 77.736 226.428 77.6933 226.769 77.608L227.025 77.48H228.817C229.67 77.48 230.353 77.8213 230.865 78.504C231.462 79.1867 231.761 79.912 231.761 80.68C231.761 81.192 231.676 81.704 231.505 82.216C231.334 82.6427 231.206 83.112 231.121 83.624V84.008C231.121 84.8613 230.908 85.7147 230.481 86.568C230.054 87.4213 229.67 88.2747 229.329 89.128C229.244 89.5547 229.158 90.024 229.073 90.536C228.988 91.048 228.86 91.5173 228.689 91.944C228.433 92.5413 228.134 93.1387 227.793 93.736C227.452 94.248 227.153 94.8027 226.897 95.4C226.812 95.8267 226.513 96.7227 226.001 98.088C225.574 99.368 225.318 100.349 225.233 101.032V101.288L225.489 101.416V101.288C227.878 97.7893 230.31 94.4187 232.785 91.176C235.345 87.848 238.204 84.7333 241.361 81.832C242.556 80.6373 243.793 79.4853 245.073 78.376C246.353 77.2667 247.804 76.4133 249.425 75.816C250.108 75.56 250.748 75.432 251.345 75.432C252.966 75.432 254.118 75.944 254.801 76.968C254.972 77.1387 255.057 77.4373 255.057 77.864C255.057 78.4613 254.716 78.4613 254.033 77.864C253.692 77.608 253.265 77.48 252.753 77.48C252.241 77.48 251.772 77.48 251.345 77.48C251.004 77.48 250.406 77.6933 249.553 78.12C248.7 78.4613 247.889 78.888 247.121 79.4C246.438 79.8267 246.054 80.2533 245.969 80.68C245.542 80.7653 245.201 80.9787 244.945 81.32C244.689 81.6613 244.39 82.0027 244.049 82.344L243.281 82.856L240.209 85.928V86.312C239.953 86.312 239.697 86.44 239.441 86.696C239.1 87.0373 238.758 87.464 238.417 87.976C238.076 88.4027 237.692 88.8293 237.265 89.256C237.094 89.4267 236.881 89.64 236.625 89.896C236.454 90.0667 236.284 90.28 236.113 90.536L234.961 92.456L233.809 93.352V93.736C233.553 93.992 233.425 94.2053 233.425 94.376C232.828 94.888 232.06 95.8267 231.121 97.192C230.182 98.472 229.628 99.4533 229.457 100.136C228.604 100.563 227.921 101.629 227.409 103.336C226.897 105.043 226.598 106.28 226.513 107.048C226.428 107.389 226.214 107.603 225.873 107.688C225.617 107.773 225.404 107.816 225.233 107.816ZM253.939 104.872C252.744 104.872 251.422 104.232 249.971 102.952C248.52 101.587 247.795 100.264 247.795 98.984H247.667C247.752 98.6427 247.838 97.832 247.923 96.552C248.008 95.272 248.222 94.5893 248.563 94.504V94.248C248.648 94.1627 248.862 93.8213 249.203 93.224C249.544 92.6267 249.886 91.9867 250.227 91.304C250.654 90.6213 250.91 90.1947 250.995 90.024C251.251 89.5973 251.934 88.7867 253.043 87.592C254.152 86.312 255.304 85.1173 256.499 84.008C257.694 82.8987 258.462 82.344 258.803 82.344C259.315 81.576 260.254 80.7227 261.619 79.784C263.07 78.8453 264.52 77.9493 265.971 77.096C267.507 76.2427 268.574 75.6453 269.171 75.304V75.176L269.299 75.304H269.427C269.768 74.9627 270.408 74.6213 271.347 74.28C272.371 73.8533 273.054 73.5973 273.395 73.512C273.992 73.256 274.59 73.0853 275.187 73C275.784 72.9147 276.382 72.8293 276.979 72.744C277.406 72.8293 277.832 72.872 278.259 72.872C278.771 72.872 279.24 72.9147 279.667 73C280.52 73.1707 281.459 73.64 282.483 74.408C283.507 75.0907 284.019 75.944 284.019 76.968C283.934 77.0533 283.848 77.1813 283.763 77.352C283.678 77.5227 283.678 77.6507 283.763 77.736L283.251 77.48C282.739 76.5413 281.971 75.9867 280.947 75.816C279.923 75.56 278.942 75.432 278.003 75.432C275.699 75.432 273.267 76.0293 270.707 77.224C268.147 78.3333 265.63 79.8267 263.155 81.704C260.68 83.5813 258.462 85.5867 256.499 87.72C254.622 89.8533 253.214 91.9013 252.275 93.864L251.891 95.4C251.72 96.2533 251.464 97.064 251.123 97.832C250.782 98.6 250.611 99.4533 250.611 100.392C250.611 101.075 250.696 101.587 250.867 101.928C251.038 102.184 251.336 102.611 251.763 103.208L252.019 103.08V103.208L252.275 102.952L252.787 103.08C253.384 102.739 254.024 102.483 254.707 102.312C255.39 102.056 255.944 101.715 256.371 101.288L256.627 101.032C257.139 100.861 257.608 100.563 258.035 100.136C258.462 99.7093 258.846 99.3253 259.187 98.984C260.467 97.7893 261.747 96.5947 263.027 95.4C264.307 94.2053 265.502 92.968 266.611 91.688C267.208 91.0053 267.976 90.152 268.915 89.128C269.854 88.104 270.664 87.3787 271.347 86.952L271.475 86.44C272.158 86.184 272.798 85.5867 273.395 84.648C274.078 83.7093 274.718 82.8133 275.315 81.96C275.998 81.0213 276.638 80.552 277.235 80.552L277.747 80.424C278.43 80.424 278.984 80.7227 279.411 81.32C279.838 81.832 280.051 82.3867 280.051 82.984C280.051 83.6667 279.838 84.4347 279.411 85.288C278.984 86.1413 278.686 86.9093 278.515 87.592C278.088 89.384 277.79 91.0053 277.619 92.456C277.448 93.8213 277.363 95.4 277.363 97.192C277.363 98.3013 277.534 99.24 277.875 100.008C278.302 100.776 278.899 101.587 279.667 102.44H280.307C281.502 101.757 282.355 101.032 282.867 100.264C283.379 99.496 284.019 98.6853 284.787 97.832C284.872 97.832 284.958 97.7893 285.043 97.704C285.128 97.6187 285.171 97.576 285.171 97.576C285.342 97.576 285.427 97.6613 285.427 97.832C285.427 98.1733 285.342 98.5147 285.171 98.856C285.086 99.112 285 99.4533 284.915 99.88C284.744 100.819 284.488 101.715 284.147 102.568C283.891 103.336 283.08 103.72 281.715 103.72C280.947 103.72 280.094 103.549 279.155 103.208C278.216 102.867 277.448 102.397 276.851 101.8C275.571 100.349 274.76 98.7707 274.419 97.064C274.163 95.272 274.035 93.4373 274.035 91.56V87.464H273.779C273.438 87.976 273.054 88.488 272.627 89C272.2 89.512 271.774 90.024 271.347 90.536C271.006 90.8773 270.579 91.2613 270.067 91.688C269.64 92.0293 269.256 92.456 268.915 92.968C268.744 92.968 268.403 93.2667 267.891 93.864C267.464 94.376 267.251 94.76 267.251 95.016C266.654 95.1013 265.971 95.6133 265.203 96.552C264.52 97.4907 264.051 97.96 263.795 97.96C263.71 98.216 263.411 98.6427 262.899 99.24C262.387 99.752 262.003 100.136 261.747 100.392C261.15 100.477 260.638 100.776 260.211 101.288C259.87 101.8 259.528 102.269 259.187 102.696C258.419 103.037 257.566 103.507 256.627 104.104C255.688 104.616 254.792 104.872 253.939 104.872Z" fill="white"/>
</svg>
