<svg width="175" height="69" viewBox="0 0 175 69" fill="none" xmlns="http://www.w3.org/2000/svg">
<path d="M21.248 65.816C20.992 65.816 20.864 65.6027 20.864 65.176C20.864 64.7493 20.992 63.9813 21.248 62.872C21.5893 61.7627 21.9307 60.6533 22.272 59.544C22.6987 58.3493 22.9973 57.496 23.168 56.984C24.6187 52.4613 26.1973 47.5973 27.904 42.392C29.6107 37.1013 31.0613 31.8107 32.256 26.52C33.536 21.2293 34.176 16.28 34.176 11.672C34.176 10.0507 34.0053 8.51466 33.664 7.064C33.408 5.528 32.8107 4.248 31.872 3.224C31.0187 2.2 29.6107 1.688 27.648 1.688C24.4907 1.688 21.5467 2.66933 18.816 4.632C16.0853 6.50933 13.696 8.856 11.648 11.672C9.68533 14.4027 8.10667 17.0907 6.912 19.736C6.05867 21.6133 5.20533 23.576 4.352 25.624C3.584 27.672 3.2 29.8053 3.2 32.024C3.2 33.7307 3.584 35.5653 4.352 37.528C5.12 39.4053 6.31467 40.7707 7.936 41.624C8.27733 41.624 8.448 41.752 8.448 42.008H8.576V42.264C6.784 42.0933 5.29067 41.368 4.096 40.088C2.90133 38.808 2.00533 37.272 1.408 35.48C0.896 33.688 0.64 32.024 0.64 30.488C0.64 27.928 1.10933 25.24 2.048 22.424C3.072 19.5227 4.352 16.792 5.888 14.232C7.50933 11.5867 9.17333 9.368 10.88 7.576C11.5627 6.808 12.3307 6.168 13.184 5.656C14.1227 5.05866 15.0187 4.46133 15.872 3.864C16.7253 3.26667 17.6213 2.712 18.56 2.2C19.4987 1.688 20.5227 1.304 21.632 1.048C21.888 0.962664 22.1867 0.919998 22.528 0.919998C22.8693 0.919998 23.168 0.877331 23.424 0.791996C23.68 0.706664 23.936 0.62133 24.192 0.535995C24.448 0.450663 24.704 0.365331 24.96 0.279999C26.6667 0.62133 28.288 0.962663 29.824 1.304C31.4453 1.56 32.896 2.37066 34.176 3.736C35.5413 5.10133 36.4373 6.72266 36.864 8.6C37.376 10.4773 37.632 12.3547 37.632 14.232C37.632 18.6693 36.9067 23.064 35.456 27.416C34.0907 31.6827 32.6827 35.9067 31.232 40.088C30.8907 41.0267 30.592 42.0507 30.336 43.16C30.1653 44.184 29.8667 45.1653 29.44 46.104C28.672 47.896 27.9893 49.6027 27.392 51.224C26.88 52.8453 26.2827 54.6373 25.6 56.6C25.5147 56.9413 25.3013 57.2827 24.96 57.624C24.704 57.88 24.4907 58.1787 24.32 58.52C23.8933 59.288 23.424 60.2267 22.912 61.336C22.4853 62.4453 22.144 63.4693 21.888 64.408C21.8027 64.664 21.76 64.9627 21.76 65.304C21.8453 65.6453 21.6747 65.816 21.248 65.816ZM25.216 68.504C24.704 68.504 24.192 68.376 23.68 68.12C23.2533 67.864 23.04 67.4373 23.04 66.84C23.04 66.4133 23.2107 65.7307 23.552 64.792C23.8933 63.9387 24.1067 63.3413 24.192 63C24.8747 61.2933 25.6427 59.7147 26.496 58.264C27.4347 56.728 28.3307 55.192 29.184 53.656C29.6107 53.0587 29.9947 52.504 30.336 51.992C30.7627 51.3947 31.104 50.7973 31.36 50.2C31.5307 49.7733 31.7013 49.3467 31.872 48.92C32.0427 48.4933 32.256 48.1093 32.512 47.768C33.1947 46.5733 33.92 45.464 34.688 44.44C35.456 43.3307 36.1813 42.2213 36.864 41.112C37.2907 40.4293 38.0587 39.2347 39.168 37.528C40.2773 35.8213 41.3867 34.2 42.496 32.664C43.6907 31.128 44.5013 30.232 44.928 29.976C45.0987 29.976 45.184 29.8907 45.184 29.72H45.056C45.7387 28.2693 46.6773 26.9467 47.872 25.752C49.0667 24.5573 50.2187 23.4053 51.328 22.296C54.0587 19.5653 56.5333 17.2613 58.752 15.384C60.9707 13.5067 63.9573 11.9707 67.712 10.776C69.504 10.9467 71.0827 11.5013 72.448 12.44C73.8133 13.3787 74.496 14.872 74.496 16.92C74.496 17.944 74.368 18.84 74.112 19.608C73.7707 20.4613 73.3867 21.3573 72.96 22.296C72.5333 23.2347 72.1067 24.1307 71.68 24.984C71.3387 25.496 70.9973 25.752 70.656 25.752V25.496L70.784 25.368C71.2107 24.0027 71.5093 22.68 71.68 21.4C71.936 20.0347 72.064 18.6693 72.064 17.304C72.064 16.3653 71.8933 15.3413 71.552 14.232C71.296 13.1227 70.5707 12.568 69.376 12.568C68.9493 12.568 68.224 12.7387 67.2 13.08C66.176 13.4213 65.664 13.848 65.664 14.36C64.64 14.36 63.3173 14.9573 61.696 16.152C60.16 17.3467 58.496 18.7973 56.704 20.504C54.9973 22.2107 53.4613 23.8747 52.096 25.496C50.7307 27.1173 49.792 28.3547 49.28 29.208C49.1947 29.2933 49.1093 29.4213 49.024 29.592C49.024 29.6773 48.9387 29.72 48.768 29.72C48.5973 29.8907 48.384 30.232 48.128 30.744C47.872 31.1707 47.7013 31.4693 47.616 31.64C47.36 31.8107 47.0187 32.152 46.592 32.664C46.1653 33.176 45.952 33.6027 45.952 33.944C45.952 34.1147 46.08 34.2 46.336 34.2L46.08 34.328C45.3973 34.84 44.8 35.352 44.288 35.864C43.8613 36.376 43.5627 37.1013 43.392 38.04C43.3067 38.1253 43.264 38.2533 43.264 38.424C43.3493 38.5093 43.3067 38.5947 43.136 38.68V38.808C42.7093 38.8933 41.984 39.576 40.96 40.856C39.936 42.136 38.8267 43.6293 37.632 45.336C36.5227 47.0427 35.4987 48.6213 34.56 50.072C33.7067 51.5227 33.152 52.504 32.896 53.016C32.64 53.6133 32.384 54.2107 32.128 54.808C31.9573 55.32 31.7013 55.8747 31.36 56.472C31.0187 57.1547 30.464 57.9653 29.696 58.904C29.3547 59.5013 29.056 60.568 28.8 62.104C28.6293 63.64 28.288 65.0907 27.776 66.456C27.264 67.8213 26.4107 68.504 25.216 68.504ZM59.401 63.64C57.2677 63.64 55.1343 62.9573 53.001 61.592C50.8677 60.2267 49.801 58.3493 49.801 55.96C49.801 55.5333 49.801 55.1067 49.801 54.68C49.8863 54.2533 49.929 53.8693 49.929 53.528C49.929 53.016 49.545 52.5893 48.777 52.248C48.009 51.8213 47.625 51.352 47.625 50.84C47.7103 50.7547 47.8383 50.712 48.009 50.712C48.3503 50.712 48.6917 50.7973 49.033 50.968C49.3743 51.0533 49.7157 51.096 50.057 51.096C50.313 51.096 50.6117 51.0107 50.953 50.84C51.1237 50.6693 51.465 49.9013 51.977 48.536C52.5743 47.1707 53.4277 45.5067 54.537 43.544C55.6463 41.5813 57.0543 39.704 58.761 37.912C60.4677 36.0347 62.5157 34.584 64.905 33.56C65.417 33.3893 65.929 33.2187 66.441 33.048C67.0383 32.792 67.593 32.664 68.105 32.664C69.0437 32.664 70.025 33.048 71.049 33.816C72.1583 34.4987 72.713 35.352 72.713 36.376C72.713 36.9733 72.585 37.528 72.329 38.04C72.073 38.4667 71.817 38.936 71.561 39.448L70.921 39.832C70.665 40.2587 70.1957 40.856 69.513 41.624C68.9157 42.3067 68.617 42.8187 68.617 43.16C68.617 43.16 68.5743 43.16 68.489 43.16C68.489 43.16 68.489 43.2027 68.489 43.288L67.977 43.416C67.465 43.7573 67.0383 44.184 66.697 44.696C66.3557 45.208 65.9717 45.592 65.545 45.848C63.9237 46.9573 62.3023 48.024 60.681 49.048C59.145 50.072 57.481 51.0107 55.689 51.864C55.3477 52.0347 54.9637 52.1627 54.537 52.248C54.1103 52.3333 53.769 52.5467 53.513 52.888C53.1717 53.4 52.9157 53.9973 52.745 54.68C52.6597 55.3627 52.617 56.0453 52.617 56.728C52.617 57.752 52.873 58.904 53.385 60.184C53.897 61.3787 54.793 61.976 56.073 61.976C56.2437 61.976 56.3717 61.976 56.457 61.976C56.6277 61.8907 56.7557 61.848 56.841 61.848C57.353 61.848 57.8223 61.8053 58.249 61.72C58.761 61.6347 59.273 61.5493 59.785 61.464L60.553 61.08H60.681C61.1077 61.08 61.9183 60.7813 63.113 60.184C64.393 59.5013 65.6303 58.8187 66.825 58.136C68.0197 57.368 68.745 56.856 69.001 56.6C69.1717 56.5147 69.2997 56.3867 69.385 56.216C69.5557 56.0453 69.6837 55.9173 69.769 55.832C71.2197 54.7227 72.713 53.656 74.249 52.632C75.785 51.608 77.2357 50.4133 78.601 49.048V49.176H78.857C78.7717 49.6027 78.4303 50.0293 77.833 50.456C77.321 50.8827 76.937 51.3093 76.681 51.736C75.7423 53.4427 74.249 55.064 72.201 56.6C70.153 58.136 68.2757 59.4587 66.569 60.568C65.9717 60.9947 65.3743 61.464 64.777 61.976C64.265 62.4027 63.6677 62.744 62.985 63C61.705 63.4267 60.5103 63.64 59.401 63.64ZM54.409 49.56C55.0917 49.56 55.7317 49.304 56.329 48.792C57.0117 48.1947 57.5237 47.8533 57.865 47.768L57.993 47.896V47.768C59.6143 47 61.1503 45.9333 62.601 44.568C64.137 43.2027 65.545 41.88 66.825 40.6H67.081C67.081 40.088 67.465 39.5333 68.233 38.936C69.001 38.2533 69.385 37.6987 69.385 37.272C69.5557 37.1013 69.7263 36.8453 69.897 36.504C70.0677 36.0773 70.153 35.7787 70.153 35.608C69.897 35.4373 69.513 35.352 69.001 35.352C68.5743 35.5227 68.0197 35.8213 67.337 36.248C66.6543 36.6747 66.057 36.888 65.545 36.888C65.545 36.9733 65.1183 37.3147 64.265 37.912C63.497 38.5093 62.6863 39.1493 61.833 39.832C60.9797 40.5147 60.425 40.984 60.169 41.24C59.7423 41.6667 59.0597 42.4347 58.121 43.544C57.1823 44.6533 56.329 45.7627 55.561 46.872C54.793 47.9813 54.409 48.8347 54.409 49.432V49.56ZM88.526 63.64C86.3927 63.64 84.2593 62.9573 82.126 61.592C79.9927 60.2267 78.926 58.3493 78.926 55.96C78.926 55.5333 78.926 55.1067 78.926 54.68C79.0113 54.2533 79.054 53.8693 79.054 53.528C79.054 53.016 78.67 52.5893 77.902 52.248C77.134 51.8213 76.75 51.352 76.75 50.84C76.8353 50.7547 76.9633 50.712 77.134 50.712C77.4753 50.712 77.8167 50.7973 78.158 50.968C78.4993 51.0533 78.8407 51.096 79.182 51.096C79.438 51.096 79.7367 51.0107 80.078 50.84C80.2487 50.6693 80.59 49.9013 81.102 48.536C81.6993 47.1707 82.5527 45.5067 83.662 43.544C84.7713 41.5813 86.1793 39.704 87.886 37.912C89.5927 36.0347 91.6407 34.584 94.03 33.56C94.542 33.3893 95.054 33.2187 95.566 33.048C96.1633 32.792 96.718 32.664 97.23 32.664C98.1687 32.664 99.15 33.048 100.174 33.816C101.283 34.4987 101.838 35.352 101.838 36.376C101.838 36.9733 101.71 37.528 101.454 38.04C101.198 38.4667 100.942 38.936 100.686 39.448L100.046 39.832C99.79 40.2587 99.3207 40.856 98.638 41.624C98.0407 42.3067 97.742 42.8187 97.742 43.16C97.742 43.16 97.6993 43.16 97.614 43.16C97.614 43.16 97.614 43.2027 97.614 43.288L97.102 43.416C96.59 43.7573 96.1633 44.184 95.822 44.696C95.4807 45.208 95.0967 45.592 94.67 45.848C93.0487 46.9573 91.4273 48.024 89.806 49.048C88.27 50.072 86.606 51.0107 84.814 51.864C84.4727 52.0347 84.0887 52.1627 83.662 52.248C83.2353 52.3333 82.894 52.5467 82.638 52.888C82.2967 53.4 82.0407 53.9973 81.87 54.68C81.7847 55.3627 81.742 56.0453 81.742 56.728C81.742 57.752 81.998 58.904 82.51 60.184C83.022 61.3787 83.918 61.976 85.198 61.976C85.3687 61.976 85.4967 61.976 85.582 61.976C85.7527 61.8907 85.8807 61.848 85.966 61.848C86.478 61.848 86.9473 61.8053 87.374 61.72C87.886 61.6347 88.398 61.5493 88.91 61.464L89.678 61.08H89.806C90.2327 61.08 91.0433 60.7813 92.238 60.184C93.518 59.5013 94.7553 58.8187 95.95 58.136C97.1447 57.368 97.87 56.856 98.126 56.6C98.2967 56.5147 98.4247 56.3867 98.51 56.216C98.6807 56.0453 98.8087 55.9173 98.894 55.832C100.345 54.7227 101.838 53.656 103.374 52.632C104.91 51.608 106.361 50.4133 107.726 49.048V49.176H107.982C107.897 49.6027 107.555 50.0293 106.958 50.456C106.446 50.8827 106.062 51.3093 105.806 51.736C104.867 53.4427 103.374 55.064 101.326 56.6C99.278 58.136 97.4007 59.4587 95.694 60.568C95.0967 60.9947 94.4993 61.464 93.902 61.976C93.39 62.4027 92.7927 62.744 92.11 63C90.83 63.4267 89.6353 63.64 88.526 63.64ZM83.534 49.56C84.2167 49.56 84.8567 49.304 85.454 48.792C86.1367 48.1947 86.6487 47.8533 86.99 47.768L87.118 47.896V47.768C88.7393 47 90.2753 45.9333 91.726 44.568C93.262 43.2027 94.67 41.88 95.95 40.6H96.206C96.206 40.088 96.59 39.5333 97.358 38.936C98.126 38.2533 98.51 37.6987 98.51 37.272C98.6807 37.1013 98.8513 36.8453 99.022 36.504C99.1927 36.0773 99.278 35.7787 99.278 35.608C99.022 35.4373 98.638 35.352 98.126 35.352C97.6993 35.5227 97.1447 35.8213 96.462 36.248C95.7793 36.6747 95.182 36.888 94.67 36.888C94.67 36.9733 94.2433 37.3147 93.39 37.912C92.622 38.5093 91.8113 39.1493 90.958 39.832C90.1047 40.5147 89.55 40.984 89.294 41.24C88.8673 41.6667 88.1847 42.4347 87.246 43.544C86.3073 44.6533 85.454 45.7627 84.686 46.872C83.918 47.9813 83.534 48.8347 83.534 49.432V49.56ZM109.075 65.432C108.563 65.432 108.051 65.2613 107.539 64.92C107.027 64.664 106.686 64.2373 106.515 63.64C106.515 63.5547 106.515 63.3413 106.515 63C106.6 62.744 106.686 62.616 106.771 62.616L112.915 48.152C113.512 46.7013 114.152 44.9947 114.835 43.032C115.518 40.984 116.03 38.9787 116.371 37.016C116.798 34.968 116.926 33.2187 116.755 31.768C116.243 31.768 115.688 31.8533 115.091 32.024C114.494 32.1947 113.939 32.28 113.427 32.28C113.256 32.28 113.171 32.152 113.171 31.896C113.171 31.64 113.256 31.384 113.427 31.128C113.683 30.7867 114.11 30.6587 114.707 30.744C114.878 30.8293 115.262 30.872 115.859 30.872C116.883 30.872 118.035 30.9147 119.315 31C120.595 31 121.278 31.5547 121.363 32.664C121.363 33.0907 121.064 34.072 120.467 35.608C119.955 37.144 119.272 38.8933 118.419 40.856C117.651 42.8187 116.926 44.696 116.243 46.488C115.56 48.1947 115.091 49.4747 114.835 50.328C114.408 51.1813 114.195 51.7787 114.195 52.12H114.579C115.262 51.0107 116.03 50.0293 116.883 49.176C117.822 48.2373 118.632 47.2133 119.315 46.104C119.827 45.7627 120.595 44.952 121.619 43.672C122.643 42.3067 123.71 40.9413 124.819 39.576C126.014 38.1253 127.123 37.1013 128.147 36.504C128.318 36.4187 128.702 36.2053 129.299 35.864C129.896 35.4373 130.238 35.1813 130.323 35.096C130.579 35.096 130.835 35.096 131.091 35.096C131.432 35.0107 131.731 34.968 131.987 34.968C132.243 34.968 132.456 35.0107 132.627 35.096C132.883 35.096 133.139 35.096 133.395 35.096C133.651 35.096 134.206 35.3093 135.059 35.736C135.912 36.0773 136.723 36.504 137.491 37.016C138.259 37.4427 138.643 37.784 138.643 38.04C138.643 38.808 138.344 39.4053 137.747 39.832C137.15 40.1733 136.638 40.5573 136.211 40.984C135.614 41.752 134.931 42.6053 134.163 43.544C133.48 44.3973 133.054 45.336 132.883 46.36L132.755 47L132.627 47.128C132.627 47.128 132.584 47.0853 132.499 47C132.499 46.9147 132.456 46.872 132.371 46.872L132.243 47C132.243 45.2933 132.67 43.672 133.523 42.136C134.376 40.5147 134.803 38.8933 134.803 37.272C134.803 36.8453 134.632 36.632 134.291 36.632C133.694 36.632 132.883 37.016 131.859 37.784C130.835 38.4667 129.896 39.192 129.043 39.96C128.19 40.6427 127.678 40.984 127.507 40.984C127.336 41.3253 126.824 41.88 125.971 42.648C125.203 43.416 124.648 43.928 124.307 44.184C123.71 44.696 123.155 45.2933 122.643 45.976C122.216 46.6587 121.747 47.3413 121.235 48.024C121.15 48.1093 120.979 48.2373 120.723 48.408C120.467 48.5787 120.254 48.7493 120.083 48.92C119.742 49.5173 119.315 50.072 118.803 50.584C118.632 50.9253 118.462 51.2667 118.291 51.608C118.206 51.9493 117.992 52.2907 117.651 52.632L117.011 52.76C116.67 53.4427 116.243 54.0827 115.731 54.68C115.219 55.192 114.75 55.7467 114.323 56.344C113.982 56.9413 113.683 57.5813 113.427 58.264C113.256 58.9467 112.958 59.544 112.531 60.056C112.019 60.7387 111.464 61.5493 110.867 62.488C110.355 63.3413 110.099 64.2373 110.099 65.176H109.971C109.63 65.3467 109.331 65.432 109.075 65.432ZM142.814 62.872C141.619 62.872 140.297 62.232 138.846 60.952C137.395 59.5867 136.67 58.264 136.67 56.984H136.542C136.627 56.6427 136.713 55.832 136.798 54.552C136.883 53.272 137.097 52.5893 137.438 52.504V52.248C137.523 52.1627 137.737 51.8213 138.078 51.224C138.419 50.6267 138.761 49.9867 139.102 49.304C139.529 48.6213 139.785 48.1947 139.87 48.024C140.126 47.5973 140.809 46.7867 141.918 45.592C143.027 44.312 144.179 43.1173 145.374 42.008C146.569 40.8987 147.337 40.344 147.678 40.344C148.19 39.576 149.129 38.7227 150.494 37.784C151.945 36.8453 153.395 35.9493 154.846 35.096C156.382 34.2427 157.449 33.6453 158.046 33.304V33.176L158.174 33.304H158.302C158.643 32.9627 159.283 32.6213 160.222 32.28C161.246 31.8533 161.929 31.5973 162.27 31.512C162.867 31.256 163.465 31.0853 164.062 31C164.659 30.9147 165.257 30.8293 165.854 30.744C166.281 30.8293 166.707 30.872 167.134 30.872C167.646 30.872 168.115 30.9147 168.542 31C169.395 31.1707 170.334 31.64 171.358 32.408C172.382 33.0907 172.894 33.944 172.894 34.968C172.809 35.0533 172.723 35.1813 172.638 35.352C172.553 35.5227 172.553 35.6507 172.638 35.736L172.126 35.48C171.614 34.5413 170.846 33.9867 169.822 33.816C168.798 33.56 167.817 33.432 166.878 33.432C164.574 33.432 162.142 34.0293 159.582 35.224C157.022 36.3333 154.505 37.8267 152.03 39.704C149.555 41.5813 147.337 43.5867 145.374 45.72C143.497 47.8533 142.089 49.9013 141.15 51.864L140.766 53.4C140.595 54.2533 140.339 55.064 139.998 55.832C139.657 56.6 139.486 57.4533 139.486 58.392C139.486 59.0747 139.571 59.5867 139.742 59.928C139.913 60.184 140.211 60.6107 140.638 61.208L140.894 61.08V61.208L141.15 60.952L141.662 61.08C142.259 60.7387 142.899 60.4827 143.582 60.312C144.265 60.056 144.819 59.7147 145.246 59.288L145.502 59.032C146.014 58.8613 146.483 58.5627 146.91 58.136C147.337 57.7093 147.721 57.3253 148.062 56.984C149.342 55.7893 150.622 54.5947 151.902 53.4C153.182 52.2053 154.377 50.968 155.486 49.688C156.083 49.0053 156.851 48.152 157.79 47.128C158.729 46.104 159.539 45.3787 160.222 44.952L160.35 44.44C161.033 44.184 161.673 43.5867 162.27 42.648C162.953 41.7093 163.593 40.8133 164.19 39.96C164.873 39.0213 165.513 38.552 166.11 38.552L166.622 38.424C167.305 38.424 167.859 38.7227 168.286 39.32C168.713 39.832 168.926 40.3867 168.926 40.984C168.926 41.6667 168.713 42.4347 168.286 43.288C167.859 44.1413 167.561 44.9093 167.39 45.592C166.963 47.384 166.665 49.0053 166.494 50.456C166.323 51.8213 166.238 53.4 166.238 55.192C166.238 56.3013 166.409 57.24 166.75 58.008C167.177 58.776 167.774 59.5867 168.542 60.44H169.182C170.377 59.7573 171.23 59.032 171.742 58.264C172.254 57.496 172.894 56.6853 173.662 55.832C173.747 55.832 173.833 55.7893 173.918 55.704C174.003 55.6187 174.046 55.576 174.046 55.576C174.217 55.576 174.302 55.6613 174.302 55.832C174.302 56.1733 174.217 56.5147 174.046 56.856C173.961 57.112 173.875 57.4533 173.79 57.88C173.619 58.8187 173.363 59.7147 173.022 60.568C172.766 61.336 171.955 61.72 170.59 61.72C169.822 61.72 168.969 61.5493 168.03 61.208C167.091 60.8667 166.323 60.3973 165.726 59.8C164.446 58.3493 163.635 56.7707 163.294 55.064C163.038 53.272 162.91 51.4373 162.91 49.56V45.464H162.654C162.313 45.976 161.929 46.488 161.502 47C161.075 47.512 160.649 48.024 160.222 48.536C159.881 48.8773 159.454 49.2613 158.942 49.688C158.515 50.0293 158.131 50.456 157.79 50.968C157.619 50.968 157.278 51.2667 156.766 51.864C156.339 52.376 156.126 52.76 156.126 53.016C155.529 53.1013 154.846 53.6133 154.078 54.552C153.395 55.4907 152.926 55.96 152.67 55.96C152.585 56.216 152.286 56.6427 151.774 57.24C151.262 57.752 150.878 58.136 150.622 58.392C150.025 58.4773 149.513 58.776 149.086 59.288C148.745 59.8 148.403 60.2693 148.062 60.696C147.294 61.0373 146.441 61.5067 145.502 62.104C144.563 62.616 143.667 62.872 142.814 62.872Z" fill="white"/>
</svg>
